<svg xmlns="http://www.w3.org/2000/svg" xmlns:xlink="http://www.w3.org/1999/xlink"><defs><linearGradient id="paint0_linear" x1="19.774" y1="0" x2="105.785" y2="10.644" gradientUnits="userSpaceOnUse"><stop stop-color="#ED0233"/><stop offset="1" stop-color="#003EB7"/></linearGradient><linearGradient id="paint1_linear" x1="14" y1="49.52" x2="54.186" y2="9.184" gradientUnits="userSpaceOnUse"><stop stop-color="#003D85"/><stop offset=".885" stop-color="#B80027"/></linearGradient></defs><symbol id="arrow-left"><path d="M17 1L1 17l16 16" stroke="#AFAFAF"/></symbol><symbol id="arrow-right"><path d="M1 1l16 16L1 33" stroke="#AFAFAF"/></symbol><symbol id="facebook-logo"><path d="M11.548.005L8.67 0C5.436 0 3.347 2.318 3.347 5.906V8.63H.453c-.25 0-.453.219-.453.49v3.945c0 .27.203.49.453.49h2.894v9.956c0 .27.202.489.452.489h3.776c.25 0 .452-.22.452-.49v-9.956h3.384c.25 0 .453-.219.453-.489l.001-3.946a.51.51 0 00-.132-.346.436.436 0 00-.32-.143H8.026V6.32c0-1.11.245-1.673 1.582-1.673h1.939c.25 0 .452-.22.452-.49V.494c0-.27-.202-.489-.452-.489z" fill="#fff"/></symbol><symbol id="insta-logo"><path d="M17.503 0H6.497A6.504 6.504 0 000 6.497v11.007A6.504 6.504 0 006.497 24h11.007A6.504 6.504 0 0024 17.504V6.497A6.504 6.504 0 0017.503 0zM12 18.562A6.57 6.57 0 015.438 12 6.57 6.57 0 0112 5.438 6.57 6.57 0 0118.562 12 6.57 6.57 0 0112 18.562zm6.72-11.577c-1.07 0-1.94-.87-1.94-1.939 0-1.07.87-1.94 1.94-1.94 1.069 0 1.939.87 1.939 1.94 0 1.07-.87 1.94-1.94 1.94z" fill="#fff"/><path d="M12 6.844A5.161 5.161 0 006.845 12 5.161 5.161 0 0012 17.155 5.161 5.161 0 0017.155 12 5.161 5.161 0 0012 6.844zM18.719 4.514a.533.533 0 10.001 1.066.533.533 0 00-.001-1.066z" fill="#fff"/></symbol><symbol id="play-button"><circle cx="50" cy="50" r="49" stroke="url(#paint0_linear)" stroke-opacity=".2" stroke-width="2"/><circle cx="50" cy="50" r="36" fill="url(#paint1_linear)"/><path d="M59 49.5l-12.75 7.361V42.14L59 49.5z" fill="#fff"/></symbol><symbol id="ruble-logo"><path fill-rule="evenodd" clip-rule="evenodd" d="M18.5 6H10v11h8.5a5.5 5.5 0 100-11zM4 0v23h14.5C24.851 23 30 17.851 30 11.5S24.851 0 18.5 0H4z" fill="#102654"/><path fill-rule="evenodd" clip-rule="evenodd" d="M0 17h6v6H0v-6z" fill="#102654"/><path fill-rule="evenodd" clip-rule="evenodd" d="M3.659 28.321V18h6v10.321H21v6H9.659V42h-6v-7.679H0v-6h3.659z" fill="#102654"/></symbol><symbol id="Supergym-mobile"><path d="M.52 4.36c0-1.13.27-2 .82-2.6.55-.61 1.35-.92 2.42-.92 1.07 0 1.87.3 2.42.92.55.6.82 1.47.82 2.6v.44H4.92v-.58c0-.92-.37-1.38-1.1-1.38-.73 0-1.1.46-1.1 1.38 0 .52.15 1.01.44 1.48.3.45.65.87 1.06 1.24.43.37.85.77 1.28 1.18a5.03 5.03 0 011.52 3.52c0 1.13-.28 2-.84 2.62-.56.6-1.37.9-2.44.9-1.07 0-1.88-.3-2.44-.9-.56-.61-.84-1.49-.84-2.62v-.86h2.08v1c0 .9.38 1.36 1.14 1.36.76 0 1.14-.45 1.14-1.36 0-.52-.15-1-.44-1.46A5.7 5.7 0 003.3 9.06L2.04 7.9A5.38 5.38 0 01.96 6.38a4.62 4.62 0 01-.44-2.02zM8.58 1h2.2v10.8c0 .9.38 1.36 1.14 1.36.76 0 1.14-.45 1.14-1.36V1h2.08v10.66c0 1.13-.28 2-.84 2.62-.56.6-1.37.9-2.44.9-1.07 0-1.88-.3-2.44-.9-.56-.61-.84-1.49-.84-2.62V1zm11.7 0c2.2 0 3.29 1.15 3.29 3.46v1.82c0 2.3-1.1 3.46-3.28 3.46h-1.04V15h-2.2V1h3.24zm0 2h-1.03v4.74h1.04c.36 0 .63-.1.8-.3.19-.2.28-.54.28-1.02v-2.1c0-.48-.1-.82-.28-1.02-.17-.2-.44-.3-.8-.3zm6.9 0v3.9h3.03v2h-3.02V13h3.8v2h-6V1h6v2h-3.8zM39.6 15h-2.24a5.7 5.7 0 01-.2-1.72v-2.2c0-.64-.11-1.1-.34-1.36-.23-.28-.6-.42-1.1-.42h-.76V15h-2.2V1h3.32c1.13 0 1.96.27 2.48.8.52.52.78 1.33.78 2.42v1.1c0 1.44-.48 2.39-1.44 2.84.97.41 1.46 1.4 1.46 2.98v2.16c0 .76.08 1.33.24 1.7zM36.01 3h-1.06v4.3h.86c.44 0 .77-.11.98-.34.23-.23.34-.6.34-1.14V4.44c0-.96-.37-1.44-1.12-1.44zm8.49 6.2v-2h3.08v4.44c0 1.13-.28 2-.84 2.62-.56.6-1.37.9-2.44.9-1.07 0-1.88-.3-2.44-.9-.56-.61-.84-1.49-.84-2.62V4.36c0-1.13.28-2 .84-2.6.56-.61 1.37-.92 2.44-.92 1.07 0 1.88.3 2.44.92.56.6.84 1.47.84 2.6v1.36H45.5v-1.5c0-.92-.38-1.38-1.14-1.38-.76 0-1.14.46-1.14 1.38v7.56c0 .9.38 1.36 1.14 1.36.76 0 1.14-.45 1.14-1.36V9.2h-1zm6.66 5.8v-4.64L48.38 1h2.3l1.68 6.38L54.04 1h2.1l-2.78 9.36V15h-2.2zm9.3-14l1.63 9.94L63.59 1h3.06v14h-2.08V4.96L63.05 15h-2.08l-1.64-9.9V15H57.4V1h3.06z" fill="#fff"/></symbol><symbol id="Supergym-tablet"><path d="M.62 4.23c0-1.36.33-2.4.99-3.12C2.26.38 3.23.01 4.5.01c1.28 0 2.25.37 2.9 1.1.66.72.99 1.76.99 3.12v.53H5.9v-.7c0-1.1-.44-1.65-1.32-1.65-.88 0-1.32.55-1.32 1.65 0 .63.18 1.22.53 1.78.35.54.78 1.04 1.27 1.49.52.45 1.03.92 1.54 1.41a6.03 6.03 0 011.82 4.23c0 1.36-.33 2.4-1 3.14-.68.72-1.65 1.08-2.93 1.08-1.28 0-2.26-.36-2.93-1.08-.67-.73-1-1.78-1-3.14v-1.03h2.49v1.2c0 1.08.45 1.63 1.37 1.63.9 0 1.36-.55 1.36-1.63 0-.63-.17-1.21-.52-1.76a6.84 6.84 0 00-1.3-1.5l-1.51-1.4c-.51-.5-.95-1.1-1.3-1.82a5.54 5.54 0 01-.53-2.43zM10.3.2h2.64v12.96c0 1.09.45 1.63 1.36 1.63.92 0 1.37-.54 1.37-1.63V.2h2.5V13c0 1.35-.34 2.4-1 3.14-.68.72-1.66 1.08-2.94 1.08s-2.25-.36-2.93-1.08c-.67-.74-1-1.79-1-3.15V.2zm14.05 0c2.62 0 3.93 1.38 3.93 4.15v2.19c0 2.76-1.3 4.15-3.93 4.15H23.1V17h-2.64V.2h3.89zm0 2.4H23.1v5.69h1.25c.43 0 .75-.12.96-.36.22-.24.33-.65.33-1.23V4.18c0-.57-.1-.98-.33-1.22-.21-.24-.53-.36-.96-.36zm8.28 0v4.68h3.62v2.4h-3.62v4.92h4.56V17h-7.2V.2h7.2v2.4h-4.56zM47.5 17h-2.69a6.85 6.85 0 01-.24-2.06V12.3c0-.77-.13-1.32-.4-1.64-.28-.33-.72-.5-1.33-.5h-.9V17H39.3V.2h3.99c1.36 0 2.35.32 2.97.96.63.62.94 1.6.94 2.9v1.32c0 1.73-.58 2.87-1.73 3.41 1.17.5 1.75 1.69 1.75 3.58v2.59c0 .91.1 1.6.29 2.04zm-4.3-14.4h-1.27v5.16h1.03c.53 0 .92-.14 1.18-.4.27-.28.4-.74.4-1.38V4.33c0-1.15-.44-1.73-1.34-1.73zm10.19 7.44v-2.4h3.7v5.33c0 1.36-.34 2.4-1.01 3.14-.68.72-1.65 1.08-2.93 1.08-1.28 0-2.26-.36-2.93-1.08-.67-.73-1-1.78-1-3.14V4.23c0-1.36.33-2.4 1-3.12.67-.73 1.65-1.1 2.93-1.1 1.28 0 2.25.37 2.93 1.1.67.72 1 1.76 1 3.12v1.63h-2.5v-1.8c0-1.1-.45-1.65-1.36-1.65-.91 0-1.37.55-1.37 1.65v9.08c0 1.08.46 1.63 1.37 1.63.91 0 1.37-.55 1.37-1.63v-3.1h-1.2zM61.39 17v-5.57L58.05.2h2.76l2.02 7.66L64.85.2h2.52l-3.34 11.23V17h-2.64zM72.56.2l1.95 11.93L76.3.2h3.67V17h-2.5V4.95L75.66 17h-2.5L71.2 5.12V17h-2.3V.2h3.67z" fill="#fff"/></symbol><symbol id="Supergym"><path d="M.676 5.168c0-1.473.355-2.6 1.066-3.38C2.452.991 3.502.592 4.888.592c1.387 0 2.435.399 3.146 1.196.71.78 1.066 1.907 1.066 3.38v.572H6.396v-.754c0-1.196-.477-1.794-1.43-1.794s-1.43.598-1.43 1.794c0 .676.19 1.317.572 1.924.381.59.84 1.127 1.378 1.612.555.485 1.11.997 1.664 1.534.555.52 1.023 1.179 1.404 1.976.381.78.572 1.647.572 2.6 0 1.473-.364 2.609-1.092 3.406-.728.78-1.785 1.17-3.172 1.17-1.387 0-2.444-.39-3.172-1.17-.728-.797-1.092-1.933-1.092-3.406v-1.118h2.704v1.3c0 1.179.494 1.768 1.482 1.768s1.482-.59 1.482-1.768a3.43 3.43 0 00-.572-1.898 7.405 7.405 0 00-1.404-1.638c-.537-.485-1.083-.988-1.638-1.508-.555-.537-1.023-1.196-1.404-1.976C.867 6.997.676 6.121.676 5.168zM11.155.8h2.86v14.04c0 1.179.494 1.768 1.482 1.768s1.482-.59 1.482-1.768V.8h2.704v13.858c0 1.473-.364 2.609-1.092 3.406-.728.78-1.786 1.17-3.172 1.17-1.387 0-2.444-.39-3.172-1.17-.728-.797-1.092-1.933-1.092-3.406V.8zm15.221 0c2.843 0 4.264 1.5 4.264 4.498v2.366c0 2.999-1.421 4.498-4.264 4.498h-1.352V19h-2.86V.8h4.212zm0 2.6h-1.352v6.162h1.352c.468 0 .815-.13 1.04-.39.243-.26.364-.702.364-1.326v-2.73c0-.624-.121-1.066-.364-1.326-.225-.26-.572-.39-1.04-.39zm8.969 0v5.07h3.926v2.6h-3.926v5.33h4.94V19h-7.8V.8h7.8v2.6h-4.94zM51.469 19h-2.912c-.173-.52-.26-1.265-.26-2.236v-2.86c0-.832-.147-1.421-.442-1.768-.295-.364-.771-.546-1.43-.546h-.988V19h-2.86V.8h4.316c1.473 0 2.548.347 3.224 1.04.676.676 1.014 1.725 1.014 3.146v1.43c0 1.872-.624 3.103-1.872 3.692 1.265.537 1.898 1.829 1.898 3.874v2.808c0 .988.104 1.725.312 2.21zM46.815 3.4h-1.378v5.59h1.118c.572 0 .997-.147 1.274-.442.295-.295.442-.789.442-1.482V5.272c0-1.248-.485-1.872-1.456-1.872zm11.033 8.06v-2.6h4.004v5.772c0 1.473-.364 2.609-1.092 3.406-.728.78-1.785 1.17-3.172 1.17-1.387 0-2.444-.39-3.172-1.17-.728-.797-1.092-1.933-1.092-3.406V5.168c0-1.473.364-2.6 1.092-3.38.728-.797 1.785-1.196 3.172-1.196 1.387 0 2.444.399 3.172 1.196.728.78 1.092 1.907 1.092 3.38v1.768h-2.704v-1.95c0-1.196-.494-1.794-1.482-1.794s-1.482.598-1.482 1.794v9.828c0 1.179.494 1.768 1.482 1.768s1.482-.59 1.482-1.768V11.46h-1.3zM66.506 19v-6.032L62.892.8h2.99l2.184 8.294L70.25.8h2.73l-3.614 12.168V19h-2.86zM78.609.8l2.106 12.922L82.665.8h3.978V19h-2.704V5.948L81.963 19h-2.704L77.127 6.13V19H74.63V.8h3.978z" fill="#fff"/></symbol><symbol id="VK-logo"><path fill-rule="evenodd" clip-rule="evenodd" d="M20.655 8.266c.796.744 1.637 1.444 2.35 2.263.316.364.615.74.843 1.162.324.6.03 1.26-.532 1.297l-3.496-.002c-.902.072-1.621-.276-2.226-.866-.484-.472-.933-.974-1.398-1.462a3.27 3.27 0 00-.63-.535c-.476-.297-.89-.206-1.164.27-.277.485-.34 1.022-.368 1.562-.037.788-.286.995-1.113 1.031-1.767.08-3.445-.176-5.003-1.03-1.374-.752-2.44-1.814-3.366-3.016C2.746 6.598 1.364 4.026.122 1.38-.159.786.045.466.732.455 1.873.433 3.014.434 4.156.452c.464.007.77.261.95.68.617 1.453 1.372 2.835 2.32 4.115.252.341.51.682.876.922.405.266.714.178.905-.254.12-.274.174-.57.201-.863.09-1.01.102-2.019-.056-3.025C9.255 1.399 8.885.992 8.23.873c-.334-.06-.284-.18-.123-.362C8.388.196 8.653 0 9.18 0h3.951c.622.118.76.385.845.984l.004 4.201c-.007.232.12.92.557 1.074.35.11.58-.158.79-.37.946-.961 1.62-2.097 2.224-3.273.268-.517.498-1.054.721-1.591.165-.398.425-.594.893-.586l3.803.004c.113 0 .227.001.336.02.641.104.817.368.619.967-.312.94-.919 1.722-1.512 2.51-.634.84-1.313 1.65-1.941 2.495-.578.772-.532 1.16.185 1.831z" fill="#fff"/></symbol></svg>