<svg width="67" height="16" fill="none" xmlns="http://www.w3.org/2000/svg"><path d="M.52 4.36c0-1.13.27-2 .82-2.6.55-.61 1.35-.92 2.42-.92 1.07 0 1.87.3 2.42.92.55.6.82 1.47.82 2.6v.44H4.92v-.58c0-.92-.37-1.38-1.1-1.38-.73 0-1.1.46-1.1 1.38 0 .52.15 1.01.44 1.48.3.45.65.87 1.06 1.24.43.37.85.77 1.28 1.18a5.03 5.03 0 011.52 3.52c0 1.13-.28 2-.84 2.62-.56.6-1.37.9-2.44.9-1.07 0-1.88-.3-2.44-.9-.56-.61-.84-1.49-.84-2.62v-.86h2.08v1c0 .9.38 1.36 1.14 1.36.76 0 1.14-.45 1.14-1.36 0-.52-.15-1-.44-1.46A5.7 5.7 0 003.3 9.06L2.04 7.9A5.38 5.38 0 01.96 6.38a4.62 4.62 0 01-.44-2.02zM8.58 1h2.2v10.8c0 .9.38 1.36 1.14 1.36.76 0 1.14-.45 1.14-1.36V1h2.08v10.66c0 1.13-.28 2-.84 2.62-.56.6-1.37.9-2.44.9-1.07 0-1.88-.3-2.44-.9-.56-.61-.84-1.49-.84-2.62V1zm11.7 0c2.2 0 3.29 1.15 3.29 3.46v1.82c0 2.3-1.1 3.46-3.28 3.46h-1.04V15h-2.2V1h3.24zm0 2h-1.03v4.74h1.04c.36 0 .63-.1.8-.3.19-.2.28-.54.28-1.02v-2.1c0-.48-.1-.82-.28-1.02-.17-.2-.44-.3-.8-.3zm6.9 0v3.9h3.03v2h-3.02V13h3.8v2h-6V1h6v2h-3.8zM39.6 15h-2.24a5.7 5.7 0 01-.2-1.72v-2.2c0-.64-.11-1.1-.34-1.36-.23-.28-.6-.42-1.1-.42h-.76V15h-2.2V1h3.32c1.13 0 1.96.27 2.48.8.52.52.78 1.33.78 2.42v1.1c0 1.44-.48 2.39-1.44 2.84.97.41 1.46 1.4 1.46 2.98v2.16c0 .76.08 1.33.24 1.7zM36.01 3h-1.06v4.3h.86c.44 0 .77-.11.98-.34.23-.23.34-.6.34-1.14V4.44c0-.96-.37-1.44-1.12-1.44zm8.49 6.2v-2h3.08v4.44c0 1.13-.28 2-.84 2.62-.56.6-1.37.9-2.44.9-1.07 0-1.88-.3-2.44-.9-.56-.61-.84-1.49-.84-2.62V4.36c0-1.13.28-2 .84-2.6.56-.61 1.37-.92 2.44-.92 1.07 0 1.88.3 2.44.92.56.6.84 1.47.84 2.6v1.36H45.5v-1.5c0-.92-.38-1.38-1.14-1.38-.76 0-1.14.46-1.14 1.38v7.56c0 .9.38 1.36 1.14 1.36.76 0 1.14-.45 1.14-1.36V9.2h-1zm6.66 5.8v-4.64L48.38 1h2.3l1.68 6.38L54.04 1h2.1l-2.78 9.36V15h-2.2zm9.3-14l1.63 9.94L63.59 1h3.06v14h-2.08V4.96L63.05 15h-2.08l-1.64-9.9V15H57.4V1h3.06z" fill="#fff"/></svg>