<svg width="108" height="75" fill="none" xmlns="http://www.w3.org/2000/svg"><path d="M22.33 32.48c-2.08 2.13-4.36 3.2-6.83 3.2a10.6 10.6 0 01-9.09-4.62c-2.2-3.1-3.29-7.22-3.29-12.38 0-3.32.62-6.36 1.87-9.11a15.15 15.15 0 015.2-6.45A13.02 13.02 0 0117.7.83c2.83 0 5.36.84 7.58 2.53 2.22 1.69 3.94 4.12 5.17 7.28a29.45 29.45 0 011.84 10.75v3.57c0 8.6-1.9 15.32-5.69 20.18-3.77 4.83-9.12 7.29-16.05 7.38h-1v-8.46h.65c3.84-.02 6.71-1.02 8.63-2.98 1.94-1.97 3.11-4.83 3.5-8.6zm-4.34-4.5c1.9 0 3.39-1.3 4.48-3.89v-4.5c0-3.31-.45-5.9-1.36-7.77-.9-1.9-2.07-2.84-3.5-2.84-1.4 0-2.55.93-3.43 2.8a16.14 16.14 0 00-1.28 6.8c0 2.91.45 5.21 1.35 6.9.9 1.66 2.15 2.5 3.74 2.5zm50.55 3.15c0 6.98-1.27 12.32-3.82 16.02-2.52 3.7-6.12 5.54-10.81 5.54-4.65 0-8.24-1.79-10.78-5.37-2.52-3.6-3.83-8.76-3.92-15.46v-9.54c0-6.95 1.26-12.27 3.78-15.94C45.5 2.68 49.12.83 53.84.83c4.71 0 8.33 1.83 10.85 5.48 2.52 3.65 3.8 8.86 3.85 15.63v9.19zM58.69 20.9c0-3.97-.39-6.95-1.18-8.94-.78-1.99-2-2.98-3.67-2.98-3.12 0-4.74 3.64-4.85 10.92v12.58c0 4.07.39 7.1 1.17 9.09.81 1.98 2.06 2.98 3.75 2.98 1.6 0 2.77-.93 3.54-2.78.78-1.87 1.2-4.72 1.24-8.56v-12.3zm45.77 10.23c0 6.98-1.28 12.32-3.82 16.02-2.52 3.7-6.12 5.54-10.82 5.54-4.64 0-8.24-1.79-10.78-5.37-2.52-3.6-3.82-8.76-3.92-15.46v-9.54c0-6.95 1.26-12.27 3.78-15.94C81.42 2.68 85.04.83 89.75.83s8.34 1.83 10.86 5.48c2.52 3.65 3.8 8.86 3.84 15.63v9.19zM94.6 20.9c0-3.97-.4-6.95-1.18-8.94-.79-1.99-2.01-2.98-3.68-2.98-3.12 0-4.73 3.64-4.85 10.92v12.58c0 4.07.4 7.1 1.18 9.09.8 1.98 2.06 2.98 3.75 2.98 1.59 0 2.77-.93 3.53-2.78.79-1.87 1.2-4.72 1.25-8.56v-12.3z" fill="url(#paint0_linear)"/><path d="M2.91 70.85h-.68V74H1.02v-7.4h1.21v3.13h.6l2.02-3.13h1.44l-2.47 3.52L6.47 74H4.95L2.9 70.85zM7.74 74v-7.4h2.48c.85 0 1.5.18 1.94.52.45.35.67.85.67 1.51 0 .35-.09.65-.26.93a1.69 1.69 0 01-.78.63c.37.1.68.3.9.6.24.3.35.68.35 1.11 0 .69-.21 1.2-.64 1.57-.42.35-1.02.53-1.8.53H7.74zm1.2-3.25v2.23h1.67c.82 0 1.22-.37 1.22-1.12 0-.74-.4-1.1-1.23-1.1H8.94zm0-1h1.27c.94 0 1.41-.36 1.41-1.05 0-.7-.44-1.05-1.33-1.07H8.94v2.11zm6.08 5.1h-1.03l3.5-10.8h1.02L15 74.85zm8.49-2.52l1.98-5.73H27V74h-1.2v-5.1L23.93 74h-.83l-1.9-5.22V74h-1.21v-7.4h1.56l1.96 5.73z" fill="#2E35AC"/><defs><linearGradient id="paint0_linear" x1="0" y1="3" x2="22.44" y2="41.1" gradientUnits="userSpaceOnUse"><stop stop-color="#D10A42"/><stop offset="1" stop-color="#0041CA"/></linearGradient></defs></svg>