<svg width="80" height="18" fill="none" xmlns="http://www.w3.org/2000/svg"><path d="M.62 4.23c0-1.36.33-2.4.99-3.12C2.26.38 3.23.01 4.5.01c1.28 0 2.25.37 2.9 1.1.66.72.99 1.76.99 3.12v.53H5.9v-.7c0-1.1-.44-1.65-1.32-1.65-.88 0-1.32.55-1.32 1.65 0 .63.18 1.22.53 1.78.35.54.78 1.04 1.27 1.49.52.45 1.03.92 1.54 1.41a6.03 6.03 0 011.82 4.23c0 1.36-.33 2.4-1 3.14-.68.72-1.65 1.08-2.93 1.08-1.28 0-2.26-.36-2.93-1.08-.67-.73-1-1.78-1-3.14v-1.03h2.49v1.2c0 1.08.45 1.63 1.37 1.63.9 0 1.36-.55 1.36-1.63 0-.63-.17-1.21-.52-1.76a6.84 6.84 0 00-1.3-1.5l-1.51-1.4c-.51-.5-.95-1.1-1.3-1.82a5.54 5.54 0 01-.53-2.43zM10.3.2h2.64v12.96c0 1.09.45 1.63 1.36 1.63.92 0 1.37-.54 1.37-1.63V.2h2.5V13c0 1.35-.34 2.4-1 3.14-.68.72-1.66 1.08-2.94 1.08s-2.25-.36-2.93-1.08c-.67-.74-1-1.79-1-3.15V.2zm14.05 0c2.62 0 3.93 1.38 3.93 4.15v2.19c0 2.76-1.3 4.15-3.93 4.15H23.1V17h-2.64V.2h3.89zm0 2.4H23.1v5.69h1.25c.43 0 .75-.12.96-.36.22-.24.33-.65.33-1.23V4.18c0-.57-.1-.98-.33-1.22-.21-.24-.53-.36-.96-.36zm8.28 0v4.68h3.62v2.4h-3.62v4.92h4.56V17h-7.2V.2h7.2v2.4h-4.56zM47.5 17h-2.69a6.85 6.85 0 01-.24-2.06V12.3c0-.77-.13-1.32-.4-1.64-.28-.33-.72-.5-1.33-.5h-.9V17H39.3V.2h3.99c1.36 0 2.35.32 2.97.96.63.62.94 1.6.94 2.9v1.32c0 1.73-.58 2.87-1.73 3.41 1.17.5 1.75 1.69 1.75 3.58v2.59c0 .91.1 1.6.29 2.04zm-4.3-14.4h-1.27v5.16h1.03c.53 0 .92-.14 1.18-.4.27-.28.4-.74.4-1.38V4.33c0-1.15-.44-1.73-1.34-1.73zm10.19 7.44v-2.4h3.7v5.33c0 1.36-.34 2.4-1.01 3.14-.68.72-1.65 1.08-2.93 1.08-1.28 0-2.26-.36-2.93-1.08-.67-.73-1-1.78-1-3.14V4.23c0-1.36.33-2.4 1-3.12.67-.73 1.65-1.1 2.93-1.1 1.28 0 2.25.37 2.93 1.1.67.72 1 1.76 1 3.12v1.63h-2.5v-1.8c0-1.1-.45-1.65-1.36-1.65-.91 0-1.37.55-1.37 1.65v9.08c0 1.08.46 1.63 1.37 1.63.91 0 1.37-.55 1.37-1.63v-3.1h-1.2zM61.39 17v-5.57L58.05.2h2.76l2.02 7.66L64.85.2h2.52l-3.34 11.23V17h-2.64zM72.56.2l1.95 11.93L76.3.2h3.67V17h-2.5V4.95L75.66 17h-2.5L71.2 5.12V17h-2.3V.2h3.67z" fill="#fff"/></svg>